<svg width="28" height="28" viewBox="0 0 28 28" fill="none" xmlns="http://www.w3.org/2000/svg">
<path d="M3.25098 13.2146C3.25098 13.6716 3.60254 14.0671 4.16504 14.0671C4.4375 14.0671 4.68359 13.9177 4.90332 13.7419L13.6221 6.42065C13.8682 6.20972 14.1494 6.20972 14.3955 6.42065L23.1055 13.7419C23.3164 13.9177 23.5625 14.0671 23.835 14.0671C24.3535 14.0671 24.749 13.7419 24.749 13.2322C24.749 12.9333 24.6348 12.696 24.4062 12.5027L21.9365 10.4285V6.77222C21.9365 6.37671 21.6816 6.13062 21.2861 6.13062H20.0732C19.6865 6.13062 19.4229 6.37671 19.4229 6.77222V8.3103L15.2568 4.81226C14.4922 4.17065 13.5254 4.17065 12.7607 4.81226L3.60254 12.5027C3.36523 12.696 3.25098 12.9597 3.25098 13.2146ZM6.10742 21.116C6.10742 22.3816 6.89844 23.1462 8.20801 23.1462H19.8008C21.1016 23.1462 21.9014 22.3816 21.9014 21.116V14.4363L14.5449 8.27515C14.2021 7.97632 13.7891 7.98511 13.4551 8.27515L6.10742 14.4363V21.116ZM16.3115 21.4939H11.6973V15.8689C11.6973 15.4558 11.9697 15.1921 12.3828 15.1921H15.6348C16.0479 15.1921 16.3115 15.4558 16.3115 15.8689V21.4939Z" fill="#1C1C1E"/>
</svg>
