<svg version="1.1" xmlns="http://www.w3.org/2000/svg" xmlns:xlink="http://www.w3.org/1999/xlink">
  <symbol id="home" viewbox="0 0 28 28">
    <path d="M3.25098 13.2148C3.25098 13.6719 3.60254 14.0674 4.16504 14.0674C4.4375 14.0674 4.68359 13.918 4.90332 13.7422L5.90527 12.8984V21.0723C5.90527 22.373 6.6875 23.1465 8.03223 23.1465H19.9238C21.2598 23.1465 22.0508 22.373 22.0508 21.0723V12.8545L23.1055 13.7422C23.3164 13.918 23.5625 14.0674 23.835 14.0674C24.3535 14.0674 24.749 13.7422 24.749 13.2324C24.749 12.9336 24.6348 12.6963 24.4062 12.5029L22.0508 10.5166V6.77246C22.0508 6.37695 21.7959 6.13086 21.4004 6.13086H20.1875C19.8008 6.13086 19.5371 6.37695 19.5371 6.77246V8.40723L15.2568 4.8125C14.4922 4.1709 13.5254 4.1709 12.7607 4.8125L3.60254 12.5029C3.36523 12.6963 3.25098 12.96 3.25098 13.2148ZM16.5312 15.6406C16.5312 15.2275 16.2676 14.9639 15.8545 14.9639H12.1631C11.75 14.9639 11.4775 15.2275 11.4775 15.6406V21.3975H8.49805C7.95312 21.3975 7.6543 21.0898 7.6543 20.5361V11.4307L13.6221 6.4209C13.8682 6.20996 14.1494 6.20996 14.3955 6.4209L20.293 11.3779V20.5361C20.293 21.0898 19.9941 21.3975 19.4492 21.3975H16.5312V15.6406Z"/>
  </symbol>
  <symbol id="profile" viewbox="0 0 28 28">
    <path d="M13.9912 22.7422C18.9746 22.7422 23.0879 18.6289 23.0879 13.6543C23.0879 8.67969 18.9658 4.56641 13.9824 4.56641C9.00781 4.56641 4.90332 8.67969 4.90332 13.6543C4.90332 18.6289 9.0166 22.7422 13.9912 22.7422ZM13.9912 20.9316C9.95703 20.9316 6.73145 17.6885 6.73145 13.6543C6.73145 9.62012 9.95703 6.38574 13.9824 6.38574C18.0166 6.38574 21.2598 9.62012 21.2686 13.6543C21.2773 17.6885 18.0254 20.9316 13.9912 20.9316ZM13.9912 13.3555C15.2217 13.3643 16.2148 12.3096 16.2148 10.9209C16.2148 9.62012 15.2217 8.53906 13.9912 8.53906C12.752 8.53906 11.7588 9.62012 11.7588 10.9209C11.7588 12.3096 12.752 13.3467 13.9912 13.3555ZM10.1064 18.0488H17.8672C18.2451 18.0488 18.4385 17.7852 18.4385 17.4336C18.4385 16.4844 17.0322 14.041 13.9912 14.041C10.9414 14.041 9.53516 16.4844 9.53516 17.4336C9.53516 17.7852 9.72852 18.0488 10.1064 18.0488Z"/>
  </symbol>
</svg> 