<svg version="1.1" xmlns="http://www.w3.org/2000/svg" xmlns:xlink="http://www.w3.org/1999/xlink">
  <symbol id="home" viewbox="0 0 28 28">
    <path d="M3.25098 13.2148C3.25098 13.6719 3.60254 14.0674 4.16504 14.0674C4.4375 14.0674 4.68359 13.918 4.90332 13.7422L5.90527 12.8984V21.0723C5.90527 22.373 6.6875 23.1465 8.03223 23.1465H19.9238C21.2598 23.1465 22.0508 22.373 22.0508 21.0723V12.8545L23.1055 13.7422C23.3164 13.918 23.5625 14.0674 23.835 14.0674C24.3535 14.0674 24.749 13.7422 24.749 13.2324C24.749 12.9336 24.6348 12.6963 24.4062 12.5029L22.0508 10.5166V6.77246C22.0508 6.37695 21.7959 6.13086 21.4004 6.13086H20.1875C19.8008 6.13086 19.5371 6.37695 19.5371 6.77246V8.40723L15.2568 4.8125C14.4922 4.1709 13.5254 4.1709 12.7607 4.8125L3.60254 12.5029C3.36523 12.6963 3.25098 12.96 3.25098 13.2148ZM16.5312 15.6406C16.5312 15.2275 16.2676 14.9639 15.8545 14.9639H12.1631C11.75 14.9639 11.4775 15.2275 11.4775 15.6406V21.3975H8.49805C7.95312 21.3975 7.6543 21.0898 7.6543 20.5361V11.4307L13.6221 6.4209C13.8682 6.20996 14.1494 6.20996 14.3955 6.4209L20.293 11.3779V20.5361C20.293 21.0898 19.9941 21.3975 19.4492 21.3975H16.5312V15.6406Z"/>
  </symbol>
  <symbol id="profile" viewbox="0 0 28 28">
    <path d="M13.9912 22.7422C18.9746 22.7422 23.0879 18.6289 23.0879 13.6543C23.0879 8.67969 18.9658 4.56641 13.9824 4.56641C9.00781 4.56641 4.90332 8.67969 4.90332 13.6543C4.90332 18.6289 9.0166 22.7422 13.9912 22.7422ZM13.9912 20.9316C9.95703 20.9316 6.73145 17.6885 6.73145 13.6543C6.73145 9.62012 9.95703 6.38574 13.9824 6.38574C18.0166 6.38574 21.2598 9.62012 21.2686 13.6543C21.2773 17.6885 18.0254 20.9316 13.9912 20.9316ZM13.9912 13.3555C15.2217 13.3643 16.2148 12.3096 16.2148 10.9209C16.2148 9.62012 15.2217 8.53906 13.9912 8.53906C12.752 8.53906 11.7588 9.62012 11.7588 10.9209C11.7588 12.3096 12.752 13.3467 13.9912 13.3555ZM10.1064 18.0488H17.8672C18.2451 18.0488 18.4385 17.7852 18.4385 17.4336C18.4385 16.4844 17.0322 14.041 13.9912 14.041C10.9414 14.041 9.53516 16.4844 9.53516 17.4336C9.53516 17.7852 9.72852 18.0488 10.1064 18.0488Z"/>
  </symbol>
  <symbol id="heart-circle" viewbox="0 0 28 28">
    <path d="M13.9912 22.7422C18.9746 22.7422 23.0879 18.6289 23.0879 13.6543C23.0879 8.67969 18.9658 4.56641 13.9824 4.56641C9.00781 4.56641 4.90332 8.67969 4.90332 13.6543C4.90332 18.6289 9.0166 22.7422 13.9912 22.7422ZM11.8203 9.68164C12.8135 9.68164 13.5518 10.2529 13.9824 11.0264C14.4131 10.2529 15.1689 9.68164 16.1445 9.68164C17.6475 9.68164 18.7637 10.833 18.7637 12.4502C18.7637 14.9463 16.0303 17.0908 14.4658 18.1016C14.3164 18.1982 14.1318 18.3213 14 18.3213C13.877 18.3213 13.666 18.1982 13.499 18.1016C11.9258 17.1084 9.20996 14.9463 9.20996 12.4502C9.20996 10.833 10.3262 9.68164 11.8203 9.68164Z"/>
  </symbol>
  <symbol id="map" viewbox="0 0 28 28">
    <path d="M14 22.7334C18.9658 22.7334 23.0791 18.6289 23.0791 13.6543C23.0791 8.68848 18.9658 4.5752 13.9912 4.5752C9.02539 4.5752 4.9209 8.68848 4.9209 13.6543C4.9209 18.6289 9.03418 22.7334 14 22.7334ZM11.583 12.9775L10.6865 11.6592C10.1855 10.9121 9.37695 10.6309 8.55957 11.0264L7.87402 11.3691C7.31152 11.6416 7.08301 12.0723 7.08301 12.8633C7.08301 13.4873 6.89844 13.7861 6.5293 13.7861C6.45898 13.7861 6.38867 13.7773 6.32715 13.7598C6.32715 13.7246 6.32715 13.6895 6.32715 13.6543C6.32715 9.46191 9.79883 5.98145 13.9912 5.98145C14.5977 5.98145 15.1865 6.06055 15.7578 6.19238C15.4766 6.70215 15.002 6.96582 15.002 7.68652C15.002 8.99609 16.7422 8.89941 16.7422 10.3584C16.7422 11.2373 16.0479 11.6504 14.5186 11.6504C13.6309 11.6504 13.0244 12.1162 13.0244 12.8105C13.0244 13.2764 13.2617 13.5928 13.7803 13.8652C14.0527 13.9883 14.1582 14.1289 14.1582 14.3223C14.1582 14.5508 13.9912 14.6738 13.7188 14.6738C13.1387 14.6738 12.3828 14.1641 11.583 12.9775ZM14 21.3271C10.2207 21.3271 7.03027 18.5059 6.43262 14.8848C6.47656 14.8848 6.52051 14.8848 6.57324 14.8848C7.50488 14.8848 8.1377 14.085 8.1377 12.8633C8.1377 12.4854 8.19922 12.3623 8.46289 12.2393L9.02539 11.9756C9.32422 11.8262 9.59668 11.9404 9.77246 12.2041L10.7656 13.6631C11.7588 15.1133 12.7695 15.7021 13.6924 15.7021C14.5889 15.7021 15.1338 15.1572 15.1338 14.2871C15.1338 13.7861 14.8789 13.3467 14.4658 13.083C14.3252 12.9863 14.2461 12.9424 14.2461 12.8545C14.2373 12.7578 14.3252 12.7139 14.4746 12.7139C16.6631 12.7139 17.8057 11.9141 17.8057 10.3584C17.8057 8.30176 16.0566 8.1875 16.0566 7.66016C16.0566 7.30859 16.5225 7.15039 16.7949 6.52637C19.6338 7.66016 21.6729 10.4463 21.6729 13.6543C21.6729 14.4717 21.541 15.2715 21.2949 16.0098C20.8379 15.6406 20.4688 15.4824 20.0469 15.4824C19.7041 15.4824 19.5195 15.5703 19.3174 15.6318C19.1504 15.6934 19.0713 15.623 19.0449 15.4648C18.9482 14.8057 18.5439 14.5596 17.8936 14.5596H17.4365C16.9092 14.5596 16.4785 14.832 16.1533 15.333L16.0127 15.5527C15.7842 15.9043 15.5908 16.1855 15.4062 16.3701C15.2217 16.5283 15.0723 16.6074 14.7119 16.7217L14.3076 16.8447C13.7012 17.0381 13.5078 17.5742 13.6748 18.1719L14.1055 19.6572C14.2549 20.2021 14.5801 20.4834 15.1074 20.4834C15.3359 20.4834 15.6172 20.4043 15.916 20.2637L16.0479 20.1934C16.2412 20.0967 16.3906 20.0615 16.5488 20.0615C16.8828 20.0615 17.1201 20.2285 17.3662 20.5273C16.3467 21.0371 15.2041 21.3271 14 21.3271ZM16.5312 19.042C16.2588 19.042 15.9424 19.1387 15.5996 19.2793L15.3359 19.376C15.1953 19.4287 15.0986 19.4199 15.0635 19.2881L14.6855 18.0225C14.6504 17.8906 14.7031 17.8115 14.835 17.7676C15.5029 17.5742 15.8633 17.3193 16.0918 17.0996C16.4434 16.7568 16.7334 16.2734 16.9883 15.9043C17.1465 15.6582 17.2695 15.5703 17.4277 15.5703H17.8848C18.0078 15.5703 18.0342 15.6143 18.0605 15.7109C18.1836 16.3262 18.5176 16.6865 19.124 16.6865C19.5635 16.6865 19.7744 16.502 20.0469 16.502C20.2666 16.502 20.5127 16.6426 20.8906 17.0029C20.293 18.2158 19.3701 19.2617 18.2539 20.0176C17.8584 19.5166 17.3574 19.042 16.5312 19.042Z"/>
  </symbol>
  <symbol id="back" viewbox="0 0 28 28">
    <path d="M8.34863 13.6543C8.34863 13.9619 8.46289 14.2256 8.70898 14.4541L15.5469 21.1514C15.7402 21.3447 15.9863 21.4502 16.2764 21.4502C16.8564 21.4502 17.3223 20.9932 17.3223 20.4043C17.3223 20.1143 17.1992 19.8594 17.0059 19.6572L10.8447 13.6543L17.0059 7.65137C17.1992 7.44922 17.3223 7.18555 17.3223 6.9043C17.3223 6.31543 16.8564 5.8584 16.2764 5.8584C15.9863 5.8584 15.7402 5.96387 15.5469 6.15723L8.70898 12.8457C8.46289 13.083 8.34863 13.3467 8.34863 13.6543Z"/>
  </symbol>
  <symbol id="eyes" viewbox="0 0 28 28">
    <path d="M8.38379 21.8281C11.2051 21.8281 13.3672 18.5234 13.3672 13.6543C13.3672 8.77637 11.2051 5.48926 8.38379 5.48926C5.5625 5.48926 3.40039 8.77637 3.40039 13.6543C3.40039 18.5234 5.5625 21.8281 8.38379 21.8281ZM19.6074 21.8281C22.4287 21.8281 24.5908 18.5234 24.5908 13.6543C24.5908 8.77637 22.4287 5.48926 19.6074 5.48926C16.7949 5.48926 14.624 8.77637 14.624 13.6543C14.624 18.5234 16.7949 21.8281 19.6074 21.8281ZM6.61719 16.6777C8.09375 16.6777 9.07812 15.6582 9.07812 14.1113C9.07812 12.582 8.09375 11.5449 6.61719 11.5449C6.01074 11.5449 5.49219 11.7207 5.08789 12.0283C5.43945 9.02246 6.79297 7.0625 8.38379 7.05371C10.2646 7.04492 11.7939 9.7168 11.7939 13.6543C11.7939 17.5654 10.2646 20.2549 8.38379 20.2637C6.97754 20.2725 5.76465 18.752 5.25488 16.3174C5.63281 16.5547 6.08984 16.6777 6.61719 16.6777ZM17.8408 16.6777C19.3086 16.6777 20.3018 15.6582 20.3018 14.1113C20.3018 12.582 19.3086 11.5449 17.8408 11.5449C17.2256 11.5449 16.707 11.7207 16.2939 12.0283C16.6543 9.02246 18.0078 7.0625 19.6074 7.0625C21.4795 7.0625 23.0088 9.73438 23.0088 13.6543C23.0088 17.5742 21.4795 20.2549 19.6074 20.2549C18.2012 20.2549 16.9795 18.7432 16.4697 16.3174C16.8477 16.5547 17.3135 16.6777 17.8408 16.6777ZM5.92285 13.8037C5.61523 13.751 5.41309 13.3818 5.4834 12.9951C5.5625 12.6084 5.87012 12.3359 6.16895 12.3887C6.48535 12.4502 6.66992 12.8193 6.59082 13.1973C6.52051 13.584 6.23047 13.8564 5.92285 13.8037ZM17.1465 13.8037C16.8301 13.7422 16.6367 13.3818 16.707 12.9951C16.7861 12.6084 17.0762 12.3359 17.3838 12.3887C17.709 12.4414 17.8936 12.8193 17.8145 13.1973C17.7354 13.584 17.4541 13.8564 17.1465 13.8037Z"/>
  </symbol>
</svg> 