<svg width="28" height="28" viewBox="0 0 28 28" fill="none" xmlns="http://www.w3.org/2000/svg">
<path d="M4.97358 23.0675C6.53803 24.6144 8.6562 24.6056 10.1591 23.0851C11.5126 21.7228 11.8994 20.0529 14.1054 17.1437L17.6386 20.6593L17.7529 21.4328C17.8056 21.7756 18.0253 22.0832 18.3066 22.2765L21.0927 24.1486C21.4091 24.3595 21.7255 24.3595 21.9541 24.131L23.6328 22.4523C23.8525 22.2238 23.8349 21.8986 23.6328 21.591L21.7783 18.8136C21.5761 18.5148 21.2685 18.3127 20.9257 18.2599L20.1611 18.1457L16.4257 14.4103C16.7509 14.0675 17.0937 13.7072 17.4716 13.3293C19.3613 14.1642 21.6113 13.8478 23.1054 12.3449C24.749 10.7101 25.0039 8.10856 23.7207 6.05192L22.7187 7.05387V7.06266L21.3037 8.46012C21.0839 8.68864 20.8115 8.69743 20.583 8.46012L19.5986 7.47575C19.3525 7.22965 19.3437 6.95719 19.5634 6.73746L20.9697 5.33121L21.9804 4.32926C19.9326 3.04606 17.3398 3.29215 15.6962 4.93571C14.4042 6.23649 13.9824 8.08219 14.4306 9.77848L9.61421 4.9445C8.31342 3.64371 6.91596 3.63493 5.64155 4.90934L4.40229 6.15739C3.12788 7.42301 3.13667 8.82047 4.43745 10.1213L9.35053 15.0343C7.34663 16.3351 6.06342 16.7834 4.956 17.8732C3.4355 19.3849 3.42671 21.4943 4.97358 23.0675ZM18.5351 8.24039L19.8095 9.50602C20.4687 10.1652 21.3124 10.1828 21.9365 9.55875L23.123 8.36344C23.2724 9.47086 22.9296 10.5783 22.1298 11.3781C20.6972 12.8107 18.3242 12.7404 16.8037 11.2375C15.2919 9.72575 15.2304 7.33512 16.6718 5.91129C17.4628 5.12028 18.5703 4.7775 19.6689 4.91813L18.4824 6.09586C17.832 6.74625 17.8583 7.58121 18.5351 8.24039ZM5.37788 9.0402C4.76264 8.42496 4.77143 7.80973 5.36909 7.20328L6.68745 5.86735C7.29389 5.2609 7.91792 5.26969 8.53315 5.88493L13.956 11.3078C12.6376 12.5646 11.5039 13.4963 10.5195 14.217L5.37788 9.0402ZM10.7392 10.7013C10.8886 10.8683 11.1611 10.8507 11.3017 10.7101C11.4687 10.5431 11.4687 10.2882 11.3105 10.13L8.11128 6.93961C7.95307 6.78141 7.70698 6.7902 7.55757 6.93961C7.39936 7.09782 7.39936 7.34391 7.55757 7.50211L10.7392 10.7013ZM9.62299 11.8088C9.7812 11.9757 10.0361 11.967 10.1943 11.8088C10.3437 11.6593 10.3525 11.4132 10.1943 11.255L6.99507 8.05582C6.85444 7.90641 6.59077 7.90641 6.43257 8.05582C6.27436 8.21403 6.26557 8.4777 6.42378 8.62711L9.62299 11.8088ZM15.8281 12.2043C15.9863 12.3537 16.1445 12.5031 16.3115 12.6261C10.5371 18.5675 11.1347 20.0529 9.13081 22.0656C8.21674 22.9884 6.9687 23.0236 5.99311 22.0568C5.01753 21.0636 5.06147 19.8244 5.97553 18.9103C7.98823 16.9064 9.46479 17.5041 15.4062 11.7297C15.538 11.8966 15.6787 12.0548 15.8281 12.2043ZM19.2382 21.0373L19.0537 20.0529L15.0107 16.0099C15.1513 15.8341 15.3007 15.6672 15.4589 15.4826L19.5458 19.5695L20.5302 19.7365L22.1474 21.881L21.374 22.6545L19.2382 21.0373ZM7.53999 21.5646C8.11128 21.5646 8.5771 21.0988 8.5771 20.5187C8.5771 19.9474 8.11128 19.4816 7.53999 19.4816C6.9687 19.4816 6.49409 19.9474 6.49409 20.5187C6.49409 21.0988 6.9687 21.5646 7.53999 21.5646Z" fill="#1C1C1E"/>
</svg>
